<svg width="28" height="30" viewBox="0 0 28 30" fill="none" xmlns="http://www.w3.org/2000/svg">
<path d="M1.5 30C1.06667 30 0.708333 29.8583 0.425 29.575C0.141667 29.2917 0 28.9333 0 28.5C0 28.0667 0.141667 27.7083 0.425 27.425C0.708333 27.1417 1.06667 27 1.5 27H26.5C26.9333 27 27.2917 27.1417 27.575 27.425C27.8583 27.7083 28 28.0667 28 28.5C28 28.9333 27.8583 29.2917 27.575 29.575C27.2917 29.8583 26.9333 30 26.5 30H1.5ZM9.65 13.8H18.35L14.1 2.7H13.9L9.65 13.8ZM5.85 22C5.31667 22 4.96667 21.825 4.8 21.475C4.63333 21.125 4.63333 20.7 4.8 20.2L11.8 1.55C11.9667 1.11667 12.2583 0.75 12.675 0.45C13.0917 0.15 13.5333 0 14 0C14.4667 0 14.9083 0.15 15.325 0.45C15.7417 0.75 16.0333 1.11667 16.2 1.55L23.2 20.2C23.3667 20.7 23.3667 21.125 23.2 21.475C23.0333 21.825 22.6833 22 22.15 22C21.8833 22 21.6417 21.925 21.425 21.775C21.2083 21.625 21.0667 21.45 21 21.25L19.05 16.05H8.9L6.95 21.25C6.88333 21.45 6.74167 21.625 6.525 21.775C6.30833 21.925 6.08333 22 5.85 22Z" fill="#1D1D1D"/>
</svg>